HIERARCHY
ROOT Hips
{
 OFFSET 0.000000 0.000000 0.000000
 CHANNELS 6 Xposition Yposition Zposition Yrotation Xrotation Zrotation
 JOINT Chest
 {
  OFFSET 0.000000 9.585900 0.002600
  CHANNELS 3 Yrotation Xrotation Zrotation
  JOINT Chest2
  {
   OFFSET 0.000000 9.601200 -0.005300
   CHANNELS 3 Yrotation Xrotation Zrotation
   JOINT Chest3
   {
    OFFSET 0.000000 9.561800 0.000000
    CHANNELS 3 Yrotation Xrotation Zrotation
    JOINT Chest4
    {
     OFFSET 0.000000 9.552100 0.000000
     CHANNELS 3 Yrotation Xrotation Zrotation
     JOINT Neck
     {
      OFFSET 0.000000 14.453000 0.000000
      CHANNELS 3 Yrotation Xrotation Zrotation
      JOINT Head
      {
       OFFSET 0.000000 8.936500 -0.011300
       CHANNELS 3 Yrotation Xrotation Zrotation
       End Site
       {
        OFFSET 0.000000 17.073600 -0.006000
       }
      }
     }
     JOINT RightCollar
     {
      OFFSET -2.921100 9.558500 0.000000
      CHANNELS 3 Yrotation Xrotation Zrotation
      JOINT RightShoulder
      {
       OFFSET -13.519700 0.000000 0.000000
       CHANNELS 3 Yrotation Xrotation Zrotation
       JOINT RightElbow
       {
        OFFSET 0.000000 -29.696600 0.000000
        CHANNELS 3 Yrotation Xrotation Zrotation
        JOINT RightWrist
        {
         OFFSET 0.000000 -24.004700 0.000000
         CHANNELS 3 Yrotation Xrotation Zrotation
         End Site
         {
          OFFSET 0.000000 -17.728500 0.000000
         }
        }
       }
      }
     }
     JOINT LeftCollar
     {
      OFFSET 2.921100 9.558500 0.000000
      CHANNELS 3 Yrotation Xrotation Zrotation
      JOINT LeftShoulder
      {
       OFFSET 13.519700 0.000000 0.000000
       CHANNELS 3 Yrotation Xrotation Zrotation
       JOINT LeftElbow
       {
        OFFSET 0.000000 -29.696600 0.000000
        CHANNELS 3 Yrotation Xrotation Zrotation
        JOINT LeftWrist
        {
         OFFSET 0.000000 -24.004700 0.000000
         CHANNELS 3 Yrotation Xrotation Zrotation
         End Site
         {
          OFFSET 0.000000 -17.728500 0.000000
         }
        }
       }
      }
     }
    }
   }
  }
 }
 JOINT RightHip
 {
  OFFSET -7.771700 -0.012900 -0.001300
  CHANNELS 3 Yrotation Xrotation Zrotation
  JOINT RightKnee
  {
   OFFSET 0.000000 -40.869800 0.001200
   CHANNELS 3 Yrotation Xrotation Zrotation
   JOINT RightAnkle
   {
    OFFSET 0.000000 -39.717900 0.002100
    CHANNELS 3 Yrotation Xrotation Zrotation
    JOINT RightToe
    {
     OFFSET 0.000000 -4.965400 11.033500
     CHANNELS 3 Yrotation Xrotation Zrotation
     End Site
     {
      OFFSET 0.000000 -1.423100 5.872300
     }
    }
   }
  }
 }
 JOINT LeftHip
 {
  OFFSET 7.771700 -0.012900 -0.001300
  CHANNELS 3 Yrotation Xrotation Zrotation
  JOINT LeftKnee
  {
   OFFSET 0.000000 -40.869800 0.001200
   CHANNELS 3 Yrotation Xrotation Zrotation
   JOINT LeftAnkle
   {
    OFFSET 0.000000 -39.717900 0.002100
    CHANNELS 3 Yrotation Xrotation Zrotation
    JOINT LeftToe
    {
     OFFSET 0.000000 -4.965400 11.033500
     CHANNELS 3 Yrotation Xrotation Zrotation
     End Site
     {
      OFFSET 0.000000 -1.423100 5.872300
     }
    }
   }
  }
 }
}
MOTION
Frames: 8
Frame Time: 0.008333
0.000000 85.388000 0.000000 0.000000 -5.767877 0.000000 0.000000 11.653817 0.000000 0.000000 -5.885947 0.000000 0.000000 -0.000000 0.000000 0.000000 -0.000000 0.000000 0.000000 12.528835 0.000000 0.000000 0.711642 0.000000 0.000000 -0.000000 0.000000 0.000000 0.000000 -90.000000 0.000000 -2.309062 0.000000 0.000000 2.309062 0.000000 0.000000 -0.000000 0.000000 0.000000 -0.000000 90.000000 0.000000 -2.309062 0.000000 0.000000 2.309062 0.000000 0.000000 8.520406 0.000000 0.000000 1.905762 0.000000 -0.000000 -4.658285 0.000000 0.000000 -0.000000 0.000000 0.000000 8.520406 0.000000 0.000000 1.905762 0.000000 -0.000000 -4.658285 0.000000 0.000000 -0.000000 0.000000
-53.739206 57.379046 15.274445 162.932580 -10.183620 2.398637 3.866452 8.225129 2.405103 0.187612 0.464193 0.066486 0.326005 0.805922 0.116214 3.228759 7.853357 1.371083 6.118118 16.293552 -0.216723 11.431586 -5.287529 -2.545905 13.688068 -1.020336 -6.661175 42.937039 -38.104085 -45.888392 -68.113361 -61.915916 94.344177 -12.363439 -3.425487 -20.762263 -8.595582 3.465814 3.455531 32.294176 -39.016177 17.399368 75.321317 -37.928783 -72.256436 10.683838 -10.206190 -3.793571 -12.847624 -62.575497 2.715628 -35.723774 72.390159 -36.809533 -3.743777 -8.070629 -1.932491 -0.273342 1.144189 -0.135333 1.321057 -64.440189 10.822928 40.887424 63.665375 34.474564 -17.127238 -7.579658 4.189502 -0.440847 -1.423469 -0.175895
-53.736335 57.382468 15.274572 162.898287 -10.143096 2.401887 3.823338 8.235089 2.413272 0.223733 0.441833 0.059626 0.273904 0.823795 0.130052 3.268076 7.815794 1.369115 6.022996 16.313517 -0.230247 11.258588 -5.256657 -2.536161 13.638095 -1.018643 -6.651345 42.866240 -38.033317 -45.890601 -67.974637 -61.903240 94.283182 -12.346878 -3.433637 -20.800072 -8.574870 3.449626 3.420248 32.269353 -38.889673 17.424186 75.207992 -37.947665 -72.243231 10.743764 -10.225702 -3.729515 -12.867697 -62.604580 2.770701 -35.685714 72.379748 -36.779535 -3.745763 -8.078275 -1.934914 -0.275123 1.154040 -0.138190 1.369031 -64.478618 10.821139 40.939433 63.659640 34.506850 -17.104915 -7.561387 4.214254 -0.477758 -1.442157 -0.194612
-53.733514 57.386965 15.272255 162.858739 -10.107816 2.413147 3.798373 8.236708 2.408651 0.185348 0.457773 0.068444 0.322288 0.794852 0.119930 3.265422 7.795731 1.383404 5.932708 16.335330 -0.243405 11.094308 -5.221873 -2.527390 13.586271 -1.010474 -6.641290 42.802989 -37.964138 -45.895904 -67.825897 -61.891042 94.211207 -12.324026 -3.440165 -20.851145 -8.552106 3.439742 3.382753 32.238429 -38.759732 17.454826 75.091987 -37.970447 -72.231857 10.807008 -10.253045 -3.642910 -12.870891 -62.630073 2.812848 -35.655506 72.370482 -36.763183 -3.742882 -8.087556 -1.935251 -0.280098 1.164775 -0.141072 1.496829 -64.513188 10.776151 40.935493 63.669507 34.495078 -17.143023 -7.533560 4.218241 -0.486162 -1.473391 -0.176245
-53.728591 57.391190 15.274337 162.770807 -10.041012 2.414338 3.861340 8.185840 2.418581 0.155663 0.465747 0.071769 0.351108 0.783711 0.117251 3.235052 7.779722 1.401259 5.847133 16.359700 -0.254850 10.938059 -5.181983 -2.516938 13.534979 -0.994093 -6.625673 42.744273 -37.892881 -45.906519 -67.667646 -61.882559 94.126235 -12.292547 -3.441407 -20.905677 -8.521677 3.439300 3.345630 32.191405 -38.625890 17.494397 74.975110 -37.998680 -72.217121 10.873143 -10.285645 -3.537529 -12.878234 -62.681028 2.914658 -35.610639 72.353818 -36.727984 -3.736209 -8.086704 -1.935170 -0.289315 1.172677 -0.149454 1.652071 -64.574299 10.765293 40.932050 63.680314 34.478491 -17.170539 -7.525794 4.246874 -0.511348 -1.488386 -0.176934
-53.717490 57.396454 15.272759 162.688444 -10.000122 2.385167 3.920909 8.158134 2.459458 0.127933 0.471755 0.072419 0.377931 0.774339 0.117190 3.209013 7.759753 1.414899 5.765294 16.385885 -0.263272 10.787543 -5.138704 -2.501919 13.535068 -0.973703 -6.625683 42.618393 -37.823773 -45.898913 -67.507367 -61.877397 94.033535 -12.249558 -3.430969 -20.953208 -8.477795 3.447689 3.314732 32.119285 -38.487059 17.536760 74.856016 -38.034306 -72.199808 10.932401 -10.320755 -3.415803 -12.940221 -62.699067 3.069401 -35.547891 72.341121 -36.675150 -3.735839 -8.064535 -1.937309 -0.294807 1.156575 -0.152898 1.841298 -64.611158 10.777190 40.827195 63.715425 34.381322 -17.258537 -7.539017 4.251037 -0.493818 -1.473338 -0.142365
-53.708152 57.401768 15.271551 162.615220 -9.948744 2.361302 3.904459 8.144246 2.482390 0.171167 0.454645 0.070552 0.320112 0.781204 0.122720 3.270544 7.721846 1.419503 5.685953 16.414041 -0.267986 10.640242 -5.092002 -2.480816 13.438698 -0.948114 -6.577569 42.609228 -37.730294 -45.947297 -67.347111 -61.873954 93.937560 -12.194706 -3.407064 -20.988023 -8.465733 3.455348 3.284848 32.057084 -38.337891 17.588307 74.734199 -38.085009 -72.180191 10.975617 -10.354244 -3.281170 -13.003131 -62.728206 3.215877 -35.491423 72.325803 -36.628946 -3.736922 -8.046774 -1.941695 -0.295080 1.147117 -0.158807 1.960542 -64.661227 10.810147 40.789205 63.738415 34.338249 -17.274394 -7.527835 4.241068 -0.447206 -1.463617 -0.119118
-53.701490 57.405938 15.276523 162.540812 -9.851589 2.337336 3.936316 8.067781 2.504858 0.173615 0.450819 0.069209 0.319993 0.775995 0.123396 3.279152 7.692208 1.429991 5.608229 16.444718 -0.268989 10.494664 -5.040800 -2.453342 13.327239 -0.915654 -6.521456 42.599656 -37.633969 -46.002657 -67.187992 -61.875464 93.842928 -12.129101 -3.370014 -21.005601 -8.458049 3.459118 3.260477 31.982672 -38.177432 17.642282 74.610334 -38.162264 -72.151071 11.003950 -10.379752 -3.139215 -13.082394 -62.800825 3.380953 -35.405697 72.300978 -36.534626 -3.763922 -8.022095 -1.977172 -0.259849 1.138415 -0.138863 1.998197 -64.755535 10.877803 40.784714 63.744598 34.330420 -17.240682 -7.507758 4.240403 -0.437704 -1.463618 -0.133870
